HIERARCHY
ROOT Hips
{
	OFFSET 0.000000 0.000000 0.000000
	CHANNELS 6 Xposition Yposition Zposition Zrotation Yrotation Xrotation 
	JOINT LHipJoint
	{
		OFFSET 0.000000 0.000000 0.000000
		CHANNELS 3 Zrotation Yrotation Xrotation
		JOINT LeftUpLeg
		{
			OFFSET 1.363060 -1.794630 0.839290
			CHANNELS 3 Zrotation Yrotation Xrotation
			JOINT LeftLeg
			{
				OFFSET 2.448110 -6.726130 0.000000
				CHANNELS 3 Zrotation Yrotation Xrotation
				JOINT LeftFoot
				{
					OFFSET 2.562200 -7.039590 0.000000
					CHANNELS 3 Zrotation Yrotation Xrotation
					JOINT LeftToeBase
					{
						OFFSET 0.157640 -0.433110 2.322550
						CHANNELS 3 Zrotation Yrotation Xrotation
						End Site
						{
							OFFSET 0.000000 0.000000 0.000000
						}
					}
				}
			}
		}
	}
	JOINT RHipJoint
	{
		OFFSET 0.000000 0.000000 0.000000
		CHANNELS 3 Zrotation Yrotation Xrotation
		JOINT RightUpLeg
		{
			OFFSET -1.305520 -1.794630 0.839290
			CHANNELS 3 Zrotation Yrotation Xrotation
			JOINT RightLeg
			{
				OFFSET -2.542530 -6.985550 0.000000
				CHANNELS 3 Zrotation Yrotation Xrotation
				JOINT RightFoot
				{
					OFFSET -2.568260 -7.056230 0.000000
					CHANNELS 3 Zrotation Yrotation Xrotation
					JOINT RightToeBase
					{
						OFFSET -0.164730 -0.452590 2.363150
						CHANNELS 3 Zrotation Yrotation Xrotation
						End Site
						{
							OFFSET 0.000000 0.000000 0.000000
						}
					}
				}
			}
		}
	}
	JOINT LowerBack
	{
		OFFSET 0.000000 0.000000 0.000000
		CHANNELS 3 Zrotation Yrotation Xrotation
		JOINT Spine
		{
			OFFSET 0.028270 2.035590 -0.193380
			CHANNELS 3 Zrotation Yrotation Xrotation
			JOINT Spine1
			{
				OFFSET 0.056720 2.048850 -0.042750
				CHANNELS 3 Zrotation Yrotation Xrotation
				JOINT Neck
				{
					OFFSET 0.000000 0.000000 0.000000
					CHANNELS 3 Zrotation Yrotation Xrotation
					JOINT Neck1
					{
						OFFSET -0.054170 1.746240 0.172020
						CHANNELS 3 Zrotation Yrotation Xrotation
						JOINT Head
						{
							OFFSET 0.104070 1.761360 -0.123970
							CHANNELS 3 Zrotation Yrotation Xrotation
							End Site
							{
								OFFSET 0.000000 0.000000 0.000000
							}
						}
					}
				}
				JOINT LeftShoulder
				{
					OFFSET 0.000000 0.000000 0.000000
					CHANNELS 3 Zrotation Yrotation Xrotation
					JOINT LeftArm
					{
						OFFSET 3.362410 1.200890 -0.311210
						CHANNELS 3 Zrotation Yrotation Xrotation
						JOINT LeftForeArm
						{
							OFFSET 4.983000 -0.000000 -0.000000
							CHANNELS 3 Zrotation Yrotation Xrotation
							JOINT LeftHand
							{
								OFFSET 3.483560 -0.000000 -0.000000
								CHANNELS 3 Zrotation Yrotation Xrotation
								JOINT LeftFingerBase
								{
									OFFSET 0.000000 0.000000 0.000000
									CHANNELS 3 Zrotation Yrotation Xrotation
									JOINT LeftHandIndex1
									{
										OFFSET 0.715260 -0.000000 -0.000000
										CHANNELS 3 Zrotation Yrotation Xrotation
										End Site
										{
											OFFSET 0.000000 0.000000 0.000000
										}
									}
								}
								JOINT LThumb
								{
									OFFSET 0.000000 0.000000 0.000000
									CHANNELS 3 Zrotation Yrotation Xrotation
									End Site
									{
										OFFSET 0.000000 0.000000 0.000000
									}
								}
							}
						}
					}
				}
				JOINT RightShoulder
				{
					OFFSET 0.000000 0.000000 0.000000
					CHANNELS 3 Zrotation Yrotation Xrotation
					JOINT RightArm
					{
						OFFSET -3.136600 1.374050 -0.404650
						CHANNELS 3 Zrotation Yrotation Xrotation
						JOINT RightForeArm
						{
							OFFSET -5.241900 -0.000000 -0.000000
							CHANNELS 3 Zrotation Yrotation Xrotation
							JOINT RightHand
							{
								OFFSET -3.444170 -0.000000 -0.000000
								CHANNELS 3 Zrotation Yrotation Xrotation
								JOINT RightFingerBase
								{
									OFFSET 0.000000 0.000000 0.000000
									CHANNELS 3 Zrotation Yrotation Xrotation
									JOINT RightHandIndex1
									{
										OFFSET -0.622530 -0.000000 -0.000000
										CHANNELS 3 Zrotation Yrotation Xrotation
										End Site
										{
											OFFSET 0.000000 0.000000 0.000000
										}
									}
								}
								JOINT RThumb
								{
									OFFSET 0.000000 0.000000 0.000000
									CHANNELS 3 Zrotation Yrotation Xrotation
									End Site
									{
										OFFSET 0.000000 0.000000 0.000000
									}
								}
							}
						}
					}
				}
			}
		}
	}
}
MOTION
Frames: 6
Frame Time: 0.008333
37.423188 15.749473 -14.554773 9.801237 56.967007 3.759751 1.028544 -3.167051 -1.679101 -2.475236 -11.658328 -18.615004 1.061332 10.708868 28.515349 0.317710 -1.715152 0.829450 3.468200 -11.416900 -33.699300 -6.418387 4.048887 -7.255788 36.832022 -3.848401 24.448147 -6.169513 -17.446678 48.577322 -0.352889 6.798623 -7.788436 -1.509000 -7.758300 21.982300 -0.287035 5.456864 14.928694 -0.248667 7.675509 -0.569923 -2.495798 3.662361 3.213154 -0.730061 -7.053510 -16.598765 12.642217 -9.388598 8.981181 2.579300 -2.758600 10.942600 5.805334 0.257839 0.090761 -74.764342 37.454580 48.368842 27.043334 -39.257058 -10.400964 -0.757422 0.159317 -17.028415 28.345787 -18.272806 -10.023800 -7.125000 0.000000 0.000000 0.563100 8.956400 -0.468600 -5.677723 2.015853 1.027013 68.049140 3.659782 48.442760 -127.465672 50.604101 -90.082739 1.143307 -0.530710 -24.565041 -23.725217 -30.218929 12.476800 7.125000 0.000000 0.000000 7.432700 -61.150700 -2.933100 
37.605494 15.763779 -14.481708 10.921702 56.431491 4.174553 1.025343 -3.098853 -1.671277 -3.545318 -10.162978 -17.745369 1.109797 10.726096 28.761808 0.362441 -2.356233 0.991076 3.278700 -11.133100 -32.730200 -6.343624 4.044051 -7.209869 35.282821 -3.893720 23.110474 -7.122280 -18.213198 52.033416 -0.288886 5.979612 -5.444706 -1.076600 -6.595500 18.522500 -0.862926 5.447367 15.789879 -0.319147 7.633608 -0.464824 -2.587629 3.659285 3.106267 -0.771734 -6.891708 -16.723284 12.556337 -9.150379 8.776981 2.542700 -2.689100 10.844100 5.773102 0.188032 0.123154 -75.089380 34.980105 47.938691 26.279841 -38.503383 -9.896508 -0.774182 0.187589 -16.367250 29.214718 -18.915176 -10.730500 -7.125000 0.000000 0.000000 1.045200 8.053400 -0.888600 -5.674791 2.088813 1.067454 69.375842 2.425414 48.295630 -125.437115 51.268630 -88.171834 1.199277 -0.579198 -24.989312 -24.382897 -30.037936 12.750000 7.125000 0.000000 0.000000 6.493400 -61.035000 -2.542700 
37.778297 15.793414 -14.397197 13.853544 55.449087 6.284148 1.009315 -3.088218 -1.644198 -5.651132 -8.718302 -16.802420 1.026549 10.686361 28.608659 0.365011 -2.544335 0.684292 3.117800 -10.883400 -31.887600 -6.180337 4.105692 -7.179189 32.531822 -3.464658 21.827958 -8.128782 -18.826553 55.379935 -0.260990 5.276792 -3.541469 -1.205900 -6.966800 19.617100 -2.820099 5.640005 16.378840 -0.492259 7.692367 -0.372007 -2.308363 3.678090 2.977787 -0.867527 -6.676130 -16.873898 12.475681 -8.822512 8.607491 2.504800 -2.576800 10.762400 5.718475 0.132136 0.151122 -75.508812 32.455741 47.274081 25.627755 -37.851738 -9.476367 -0.772948 0.214766 -15.368013 29.484352 -19.080015 -10.939200 -7.125000 0.000000 0.000000 1.192400 7.800500 -1.019800 -5.676888 2.156916 1.103638 70.736847 1.628603 47.842009 -122.415033 52.215926 -85.279288 1.281733 -0.642177 -24.289931 -24.302116 -30.488354 12.875300 7.125000 0.000000 0.000000 6.695200 -61.385000 -2.677700 
37.962545 15.824173 -14.313401 16.142177 54.484077 7.935122 1.001295 -3.082164 -1.616952 -7.542164 -7.722135 -15.739112 0.914014 10.608341 28.289312 0.361023 -2.581598 0.022591 3.211600 -11.029900 -32.380800 -6.026948 4.153837 -7.136801 29.896673 -3.201661 20.360549 -9.101415 -19.350225 58.513544 -0.259432 5.049360 -2.437716 -1.282500 -7.176400 20.239100 -4.356292 5.746525 16.673314 -0.632115 7.665274 -0.295700 -2.118025 3.658520 2.978407 -0.919943 -6.398037 -16.981865 12.278321 -8.435534 8.546732 2.416200 -2.441000 10.704500 5.674946 0.081471 0.175264 -76.046822 29.953425 46.521021 24.947947 -37.172272 -9.050212 -0.765456 0.232101 -14.008065 29.602300 -18.705868 -10.790800 -7.125000 0.000000 0.000000 1.316300 8.193900 -1.115600 -5.671194 2.194931 1.135099 72.144548 0.816349 47.732343 -118.822028 53.245680 -81.706908 1.391956 -0.748369 -24.395250 -25.030862 -29.149542 12.703300 7.125000 0.000000 0.000000 5.028300 -60.007200 -1.844200 
38.143012 15.863414 -14.230730 17.686630 53.489363 9.017727 1.005327 -3.062618 -1.593766 -9.056389 -7.166862 -14.589212 0.810449 10.538444 27.984168 0.332785 -2.276357 -0.730757 3.115500 -10.879700 -31.875200 -5.901550 4.181080 -7.061276 27.664614 -3.043829 18.647433 -10.111003 -19.847129 61.697481 -0.277509 5.756064 -2.692105 -0.958600 -6.234400 17.466200 -5.520409 5.780537 16.953604 -0.719610 7.566086 -0.266378 -1.940546 3.602519 2.891190 -1.017312 -6.137958 -17.120919 12.085133 -8.062639 8.602545 2.348000 -2.300000 10.735200 5.639966 0.038927 0.187196 -76.678467 27.490517 45.931085 24.184555 -36.386710 -8.576193 -0.764775 0.269393 -12.597368 29.982779 -19.098398 -11.174200 -7.125000 0.000000 0.000000 1.504400 7.657600 -1.290900 -5.668005 2.242421 1.162027 73.579674 0.067128 47.511837 -114.511753 54.376312 -77.299649 1.526907 -0.865982 -24.193627 -24.958036 -28.025114 12.166800 7.125000 0.000000 0.000000 4.446400 -58.637800 -1.484500 
38.311829 15.910319 -14.147547 18.463821 52.542749 9.516552 1.028278 -3.022919 -1.584452 -10.099536 -6.893951 -13.356136 0.709572 10.441706 27.632162 0.279997 -1.623009 -1.646775 3.202200 -11.015300 -32.331600 -5.836447 4.170695 -6.973793 26.126574 -2.815629 16.717060 -10.881999 -20.200974 64.079510 -0.302608 6.036862 -3.606480 -0.707700 -5.376500 14.985700 -6.176823 5.690743 17.182164 -0.798870 7.360540 -0.227862 -2.008681 3.505856 2.941621 -0.972073 -5.826309 -17.453426 12.004536 -7.655965 8.708626 2.326400 -2.106100 10.838200 5.596396 0.033623 0.189798 -77.193321 24.869942 45.485688 23.443809 -35.599487 -8.124161 -0.774644 0.295620 -11.530031 30.823144 -19.322162 -11.677400 -7.125000 0.000000 0.000000 2.012500 7.215800 -1.744900 -5.687302 2.273686 1.188620 75.313265 -0.175759 47.006071 -109.257852 55.659547 -71.833226 1.694434 -0.980477 -23.577110 -24.596320 -27.943114 11.929500 7.125000 0.000000 0.000000 4.592200 -58.289600 -1.494900 
